<svg width="32" height="32" viewBox="0 0 32 32" fill="none" xmlns="http://www.w3.org/2000/svg">
<g clip-path="url(#clip0_166_4)">
<path d="M30.0881 12.073C30.4161 11.437 30.6881 10.573 30.4011 9.693C30.0681 8.672 29.1451 7.989 27.6661 7.677L18.2591 5.677L8.66006 0.541C8.55606 0.484 7.62406 0 6.59706 0C5.83706 0 5.18106 0.265 4.70106 0.76C4.25306 1.229 3.98206 1.875 3.90006 2.688C3.81106 2.683 3.72306 2.677 3.63506 2.677C2.18206 2.677 1.43606 3.286 1.06706 3.797C0.488064 4.588 0.420064 5.656 0.848064 6.973L4.37906 17.797L4.71806 27.177C4.77506 28.802 5.67706 30.557 7.51506 30.557C7.86306 30.557 8.22806 30.489 8.60806 30.36C9.04506 31.099 9.83206 32 11.0921 32C11.9771 32 12.8591 31.527 13.7011 30.584L20.5141 22.984L29.5551 17.276C29.7521 17.151 31.4821 16.011 31.4191 14.303C31.3941 13.448 30.9351 12.703 30.0861 12.074L30.0881 12.073ZM9.86006 26.885L6.75506 17.374L6.33906 5.578L17.4381 7.942L26.4651 12.77L18.9601 21.139L9.86006 26.885ZM27.1721 10.016C27.8961 10.167 28.1151 10.385 28.1311 10.432C28.1561 10.516 28.1041 10.693 28.0161 10.891L25.8491 9.735L27.1721 10.016ZM6.59906 2.391C6.95906 2.391 7.41206 2.584 7.53606 2.646L9.85506 3.886L6.26006 3.121C6.28106 2.694 6.36906 2.474 6.42106 2.422C6.43706 2.407 6.50606 2.391 6.59906 2.391ZM3.12006 6.235C2.86006 5.438 2.99506 5.203 3.00006 5.198C3.02706 5.167 3.21906 5.069 3.63606 5.069C3.74506 5.069 3.84406 5.074 3.92706 5.084L4.07406 9.152L3.12006 6.235ZM7.10406 27.088L7.06806 26.027L7.74906 28.126C7.67706 28.146 7.59306 28.162 7.51606 28.167C7.31706 28.167 7.12506 27.5 7.10406 27.088ZM11.9211 28.984C11.3691 29.604 11.0981 29.609 11.0931 29.609C11.0161 29.609 10.8491 29.432 10.6931 29.188L13.1201 27.656L11.9211 28.984ZM28.2871 15.255L26.3601 16.474L28.6201 13.954C28.9481 14.183 29.0361 14.35 29.0361 14.391C29.0411 14.568 28.6511 15.016 28.2871 15.255Z" fill="#14274A"/>
</g>
<defs>
<clipPath id="clip0_166_4">
<rect width="32" height="32" fill="white"/>
</clipPath>
</defs>
</svg>
