<svg width="142" height="32" viewBox="0 0 142 32" fill="none" xmlns="http://www.w3.org/2000/svg">
<g clip-path="url(#clip0_166_6)">
<path d="M30.0881 12.073C30.4161 11.437 30.6881 10.573 30.4011 9.693C30.0681 8.672 29.1451 7.989 27.6661 7.677L18.2591 5.677L8.66006 0.541C8.55606 0.484 7.62406 0 6.59706 0C5.83706 0 5.18106 0.265 4.70106 0.76C4.25306 1.229 3.98206 1.875 3.90006 2.688C3.81106 2.683 3.72306 2.677 3.63506 2.677C2.18206 2.677 1.43606 3.286 1.06706 3.797C0.488064 4.588 0.420064 5.656 0.848064 6.973L4.37906 17.797L4.71806 27.177C4.77506 28.802 5.67706 30.557 7.51506 30.557C7.86306 30.557 8.22806 30.489 8.60806 30.36C9.04506 31.099 9.83206 32 11.0921 32C11.9771 32 12.8591 31.527 13.7011 30.584L20.5141 22.984L29.5551 17.276C29.7521 17.151 31.4821 16.011 31.4191 14.303C31.3941 13.448 30.9351 12.703 30.0861 12.074L30.0881 12.073ZM9.86006 26.885L6.75506 17.374L6.33906 5.578L17.4381 7.942L26.4651 12.77L18.9601 21.139L9.86006 26.885ZM27.1721 10.016C27.8961 10.167 28.1151 10.385 28.1311 10.432C28.1561 10.516 28.1041 10.693 28.0161 10.891L25.8491 9.735L27.1721 10.016ZM6.59906 2.391C6.95906 2.391 7.41206 2.584 7.53606 2.646L9.85506 3.886L6.26006 3.121C6.28106 2.694 6.36906 2.474 6.42106 2.422C6.43706 2.407 6.50606 2.391 6.59906 2.391ZM3.12006 6.235C2.86006 5.438 2.99506 5.203 3.00006 5.198C3.02706 5.167 3.21906 5.069 3.63606 5.069C3.74506 5.069 3.84406 5.074 3.92706 5.084L4.07406 9.152L3.12006 6.235ZM7.10406 27.088L7.06806 26.027L7.74906 28.126C7.67706 28.146 7.59306 28.162 7.51606 28.167C7.31706 28.167 7.12506 27.5 7.10406 27.088ZM11.9211 28.984C11.3691 29.604 11.0981 29.609 11.0931 29.609C11.0161 29.609 10.8491 29.432 10.6931 29.188L13.1201 27.656L11.9211 28.984ZM28.2871 15.255L26.3601 16.474L28.6201 13.954C28.9481 14.183 29.0361 14.35 29.0361 14.391C29.0411 14.568 28.6511 15.016 28.2871 15.255Z" fill="#ffffff"/>
</g>
<path d="M48.072 12.614C47.892 12.41 47.682 12.23 47.442 12.074C47.202 11.906 46.932 11.762 46.632 11.642C46.332 11.522 46.008 11.426 45.66 11.354C45.324 11.282 44.964 11.246 44.58 11.246C43.464 11.246 42.642 11.462 42.114 11.894C41.598 12.314 41.34 12.89 41.34 13.622C41.34 14.126 41.46 14.522 41.7 14.81C41.952 15.098 42.342 15.332 42.87 15.512C43.398 15.692 44.07 15.878 44.886 16.07C45.798 16.262 46.584 16.49 47.244 16.754C47.904 17.018 48.414 17.378 48.774 17.834C49.134 18.278 49.314 18.884 49.314 19.652C49.314 20.24 49.2 20.75 48.972 21.182C48.744 21.614 48.426 21.974 48.018 22.262C47.61 22.55 47.124 22.766 46.56 22.91C45.996 23.042 45.378 23.108 44.706 23.108C44.046 23.108 43.41 23.042 42.798 22.91C42.198 22.766 41.628 22.562 41.088 22.298C40.548 22.022 40.044 21.674 39.576 21.254L40.206 20.228C40.434 20.468 40.704 20.696 41.016 20.912C41.34 21.116 41.694 21.302 42.078 21.47C42.474 21.638 42.894 21.77 43.338 21.866C43.794 21.95 44.262 21.992 44.742 21.992C45.762 21.992 46.554 21.806 47.118 21.434C47.694 21.062 47.982 20.51 47.982 19.778C47.982 19.25 47.838 18.83 47.55 18.518C47.262 18.194 46.83 17.93 46.254 17.726C45.678 17.522 44.97 17.324 44.13 17.132C43.242 16.928 42.492 16.7 41.88 16.448C41.268 16.196 40.806 15.866 40.494 15.458C40.194 15.038 40.044 14.486 40.044 13.802C40.044 13.01 40.236 12.344 40.62 11.804C41.016 11.252 41.556 10.838 42.24 10.562C42.924 10.274 43.71 10.13 44.598 10.13C45.162 10.13 45.684 10.19 46.164 10.31C46.656 10.418 47.106 10.58 47.514 10.796C47.934 11.012 48.324 11.282 48.684 11.606L48.072 12.614ZM51.2836 23V13.622H52.5076V23H51.2836ZM51.2836 11.66V9.86H52.5076V11.66H51.2836ZM69.1535 23H67.9295V17.762C67.9295 16.67 67.7555 15.866 67.4075 15.35C67.0595 14.834 66.5435 14.576 65.8595 14.576C65.1515 14.576 64.5155 14.828 63.9515 15.332C63.3995 15.836 63.0095 16.484 62.7815 17.276V23H61.5575V17.762C61.5575 16.658 61.3895 15.854 61.0535 15.35C60.7175 14.834 60.2015 14.576 59.5055 14.576C58.8095 14.576 58.1795 14.822 57.6155 15.314C57.0515 15.806 56.6555 16.454 56.4275 17.258V23H55.2035V13.622H56.3195V15.746C56.7155 15.014 57.2195 14.45 57.8315 14.054C58.4555 13.658 59.1455 13.46 59.9015 13.46C60.6815 13.46 61.3115 13.682 61.7915 14.126C62.2715 14.57 62.5655 15.152 62.6735 15.872C63.1055 15.08 63.6215 14.48 64.2215 14.072C64.8335 13.664 65.5235 13.46 66.2915 13.46C66.8195 13.46 67.2635 13.556 67.6235 13.748C67.9955 13.94 68.2895 14.216 68.5055 14.576C68.7335 14.924 68.8955 15.35 68.9915 15.854C69.0995 16.346 69.1535 16.898 69.1535 17.51V23ZM76.5325 23.18C75.7525 23.18 75.0505 22.976 74.4265 22.568C73.8145 22.16 73.3285 21.656 72.9685 21.056V26.834H71.7445V13.622H72.8425V15.44C73.2145 14.852 73.7125 14.378 74.3365 14.018C74.9605 13.646 75.6265 13.46 76.3345 13.46C76.9825 13.46 77.5765 13.598 78.1165 13.874C78.6565 14.138 79.1245 14.498 79.5205 14.954C79.9165 15.41 80.2225 15.932 80.4385 16.52C80.6665 17.096 80.7805 17.696 80.7805 18.32C80.7805 19.196 80.6005 20.006 80.2405 20.75C79.8925 21.482 79.4005 22.07 78.7645 22.514C78.1285 22.958 77.3845 23.18 76.5325 23.18ZM76.1905 22.1C76.7065 22.1 77.1685 21.998 77.5765 21.794C77.9845 21.578 78.3325 21.29 78.6205 20.93C78.9205 20.57 79.1485 20.168 79.3045 19.724C79.4605 19.268 79.5385 18.8 79.5385 18.32C79.5385 17.816 79.4485 17.336 79.2685 16.88C79.1005 16.424 78.8545 16.022 78.5305 15.674C78.2065 15.326 77.8345 15.05 77.4145 14.846C76.9945 14.642 76.5385 14.54 76.0465 14.54C75.7345 14.54 75.4105 14.6 75.0745 14.72C74.7385 14.84 74.4145 15.014 74.1025 15.242C73.8025 15.458 73.5505 15.704 73.3465 15.98C73.1425 16.256 73.0165 16.55 72.9685 16.862V19.742C73.1605 20.186 73.4185 20.588 73.7425 20.948C74.0665 21.296 74.4385 21.578 74.8585 21.794C75.2905 21.998 75.7345 22.1 76.1905 22.1ZM82.9079 9.86H84.1319V20.876C84.1319 21.344 84.2159 21.65 84.3839 21.794C84.5519 21.938 84.7559 22.01 84.9959 22.01C85.2119 22.01 85.4279 21.986 85.6439 21.938C85.8599 21.89 86.0459 21.842 86.2019 21.794L86.4179 22.784C86.1899 22.88 85.9079 22.958 85.5719 23.018C85.2479 23.078 84.9659 23.108 84.7259 23.108C84.1739 23.108 83.7299 22.946 83.3939 22.622C83.0699 22.298 82.9079 21.854 82.9079 21.29V9.86ZM91.8082 23.18C91.1362 23.18 90.5122 23.054 89.9362 22.802C89.3602 22.538 88.8622 22.184 88.4422 21.74C88.0222 21.284 87.6922 20.762 87.4522 20.174C87.2242 19.586 87.1102 18.956 87.1102 18.284C87.1102 17.408 87.3082 16.604 87.7042 15.872C88.1122 15.14 88.6702 14.558 89.3782 14.126C90.0862 13.682 90.8902 13.46 91.7902 13.46C92.7142 13.46 93.5182 13.682 94.2022 14.126C94.8982 14.57 95.4442 15.158 95.8402 15.89C96.2362 16.61 96.4342 17.402 96.4342 18.266C96.4342 18.362 96.4342 18.458 96.4342 18.554C96.4342 18.638 96.4282 18.704 96.4162 18.752H88.3882C88.4482 19.424 88.6342 20.024 88.9462 20.552C89.2702 21.068 89.6842 21.482 90.1882 21.794C90.7042 22.094 91.2622 22.244 91.8622 22.244C92.4742 22.244 93.0502 22.088 93.5902 21.776C94.1422 21.464 94.5262 21.056 94.7422 20.552L95.8042 20.84C95.6122 21.284 95.3182 21.686 94.9222 22.046C94.5262 22.406 94.0582 22.688 93.5182 22.892C92.9902 23.084 92.4202 23.18 91.8082 23.18ZM88.3522 17.87H95.2822C95.2342 17.186 95.0482 16.586 94.7242 16.07C94.4122 15.554 93.9982 15.152 93.4822 14.864C92.9782 14.564 92.4202 14.414 91.8082 14.414C91.1962 14.414 90.6382 14.564 90.1342 14.864C89.6302 15.152 89.2162 15.56 88.8922 16.088C88.5802 16.604 88.4002 17.198 88.3522 17.87ZM102.317 16.52C102.317 15.74 102.449 14.978 102.713 14.234C102.989 13.478 103.385 12.794 103.901 12.182C104.417 11.558 105.053 11.066 105.809 10.706C106.565 10.334 107.423 10.148 108.383 10.148C109.523 10.148 110.495 10.412 111.299 10.94C112.115 11.456 112.715 12.122 113.099 12.938L112.109 13.55C111.833 12.986 111.485 12.542 111.065 12.218C110.645 11.882 110.195 11.642 109.715 11.498C109.247 11.354 108.779 11.282 108.311 11.282C107.543 11.282 106.865 11.438 106.277 11.75C105.689 12.05 105.191 12.458 104.783 12.974C104.387 13.478 104.087 14.048 103.883 14.684C103.679 15.308 103.577 15.944 103.577 16.592C103.577 17.3 103.697 17.978 103.937 18.626C104.177 19.274 104.513 19.85 104.945 20.354C105.377 20.846 105.881 21.242 106.457 21.542C107.045 21.83 107.681 21.974 108.365 21.974C108.845 21.974 109.337 21.89 109.841 21.722C110.345 21.554 110.813 21.296 111.245 20.948C111.689 20.6 112.043 20.15 112.307 19.598L113.351 20.138C113.087 20.774 112.679 21.314 112.127 21.758C111.575 22.202 110.957 22.538 110.273 22.766C109.601 22.994 108.941 23.108 108.293 23.108C107.417 23.108 106.613 22.922 105.881 22.55C105.149 22.166 104.513 21.662 103.973 21.038C103.445 20.402 103.037 19.694 102.749 18.914C102.461 18.122 102.317 17.324 102.317 16.52ZM115.502 23V10.22H120.902C121.454 10.22 121.958 10.334 122.414 10.562C122.87 10.79 123.266 11.102 123.602 11.498C123.95 11.882 124.214 12.314 124.394 12.794C124.586 13.262 124.682 13.742 124.682 14.234C124.682 14.846 124.562 15.422 124.322 15.962C124.094 16.502 123.764 16.958 123.332 17.33C122.912 17.702 122.414 17.948 121.838 18.068L124.97 23H123.548L120.542 18.284H116.762V23H115.502ZM116.762 17.168H120.938C121.442 17.168 121.88 17.03 122.252 16.754C122.624 16.478 122.912 16.118 123.116 15.674C123.32 15.218 123.422 14.738 123.422 14.234C123.422 13.718 123.302 13.244 123.062 12.812C122.834 12.368 122.522 12.014 122.126 11.75C121.742 11.474 121.31 11.336 120.83 11.336H116.762V17.168ZM138.584 23V12.596L133.958 20.678H133.166L128.522 12.596V23H127.262V10.22H128.558L133.544 18.968L138.566 10.22H139.844V23H138.584Z" fill="#ffffff"/>
<defs>
<clipPath id="clip0_166_6">
<rect width="32" height="32" fill="white"/>
</clipPath>
</defs>
</svg>
